<svg width="1538" height="725" viewBox="0 0 1538 725" fill="none" xmlns="http://www.w3.org/2000/svg">
<rect width="1538" height="725" rx="50" fill="#1A2B34"/>
<path d="M398.996 525.429C398.996 531.806 396.988 536.63 392.972 539.9C389.011 543.116 383.584 544.724 376.692 544.724H370.505V563.61H357.155V506.951H374.901C382.716 506.951 388.685 508.504 392.81 511.611C396.934 514.664 398.996 519.269 398.996 525.429ZM385.32 525.429C385.32 519.487 381.929 516.517 375.145 516.517H370.505V535.076H375.796C378.835 535.076 381.169 534.286 382.797 532.705C384.479 531.124 385.32 528.699 385.32 525.429Z" fill="#F9F9F9"/>
<path d="M527.988 524.202C527.988 528.018 526.957 531.233 524.895 533.85C522.887 536.412 520.174 538.374 516.755 539.736L531.489 563.61H516.348L504.137 541.944H500.393V563.61H487.043V506.951H504.788C512.549 506.951 518.356 508.368 522.209 511.202C526.062 514.037 527.988 518.37 527.988 524.202ZM514.231 524.202C514.231 521.477 513.444 519.487 511.87 518.234C510.351 516.98 507.99 516.353 504.788 516.353H500.393V532.705H505.358C508.289 532.705 510.487 532.024 511.952 530.661C513.471 529.298 514.231 527.146 514.231 524.202Z" fill="#F9F9F9"/>
<path d="M659.504 535.24C659.504 544.451 657.55 551.728 653.643 557.069C649.79 562.356 644.227 565 636.955 565C629.629 565 624.039 562.384 620.186 557.151C616.333 551.864 614.407 544.56 614.407 535.24C614.407 526.028 616.333 518.779 620.186 513.492C624.094 508.15 629.683 505.479 636.955 505.479C644.282 505.479 649.871 508.123 653.724 513.41C657.577 518.643 659.504 525.919 659.504 535.24ZM645.828 535.24C645.828 528.263 645.123 523.194 643.712 520.032C642.355 516.871 640.103 515.29 636.955 515.29C633.808 515.29 631.528 516.871 630.117 520.032C628.761 523.194 628.082 528.263 628.082 535.24C628.082 542.216 628.761 547.286 630.117 550.447C631.528 553.608 633.808 555.189 636.955 555.189C640.157 555.189 642.436 553.608 643.793 550.447C645.15 547.286 645.828 542.216 645.828 535.24Z" fill="#F9F9F9"/>
<path d="M785.647 543.252C785.647 549.902 783.639 555.162 779.623 559.032C775.662 562.902 770.099 564.837 762.935 564.837C759.462 564.837 756.396 564.4 753.737 563.528C751.132 562.656 748.527 561.321 745.922 559.522L750.969 551.264C752.923 552.573 754.741 553.499 756.423 554.044C758.106 554.589 760.032 554.862 762.203 554.862C765.188 554.862 767.603 553.908 769.448 552C771.347 550.038 772.297 547.149 772.297 543.334V516.762H755.039V506.951H785.647V543.252Z" fill="#F9F9F9"/>
<path d="M893.881 530.171H913.418V539.491H893.881V553.963H917.407V563.61H880.531V506.951H917.407L916.023 516.517H893.881V530.171Z" fill="#F9F9F9"/>
<path d="M1032.32 505.479C1036.22 505.479 1039.59 505.997 1042.41 507.033C1045.23 508.068 1047.89 509.622 1050.39 511.693L1043.88 519.624C1040.46 516.844 1036.71 515.454 1032.64 515.454C1028.79 515.454 1025.67 517.089 1023.28 520.359C1020.95 523.63 1019.78 528.563 1019.78 535.158C1019.78 541.753 1020.95 546.659 1023.28 549.875C1025.61 553.036 1028.82 554.617 1032.89 554.617C1035.38 554.617 1037.53 554.181 1039.32 553.308C1041.11 552.436 1043.03 551.183 1045.1 549.548L1051.12 557.315C1046.13 562.438 1039.81 565 1032.15 565C1027 565 1022.44 563.855 1018.48 561.566C1014.57 559.277 1011.5 555.898 1009.28 551.428C1007.05 546.904 1005.94 541.481 1005.94 535.158C1005.94 528.999 1007.08 523.684 1009.36 519.215C1011.64 514.745 1014.79 511.339 1018.8 508.995C1022.82 506.651 1027.32 505.479 1032.32 505.479Z" fill="#F9F9F9"/>
<path d="M1164.4 563.61H1151.05V517.253H1135.18V506.951H1180.85L1179.54 517.253H1164.4V563.61Z" fill="#F9F9F9"/>
<path d="M710.952 208.852C709.766 209.643 708.327 210.258 706.636 210.697C704.945 211.136 703.286 211.356 701.661 211.356C697.927 211.356 695.049 210.379 693.028 208.424C691.008 206.469 689.997 203.954 689.997 200.879V180.188H682.024V175.904H689.997V168.03L695.533 167.371V175.904H707.525L706.866 180.188H695.533V200.813C695.533 202.746 696.038 204.217 697.048 205.228C698.08 206.238 699.783 206.743 702.155 206.743C703.451 206.743 704.648 206.59 705.746 206.282C706.845 205.975 707.866 205.579 708.81 205.096L710.952 208.852Z" fill="#F9F9F9"/>
<path d="M761.402 161.408V180.649C762.764 178.826 764.433 177.464 766.41 176.563C768.409 175.641 770.43 175.18 772.472 175.18C775.855 175.18 778.326 176.08 779.886 177.881C781.445 179.682 782.225 182.186 782.225 185.393V210.598H776.69V185.525C776.69 183.438 776.206 181.923 775.24 180.978C774.274 180.012 772.758 179.529 770.693 179.529C769.375 179.529 768.123 179.825 766.937 180.418C765.751 181.011 764.686 181.747 763.741 182.626C762.797 183.504 762.017 184.405 761.402 185.327V210.598H755.867V162.001L761.402 161.408Z" fill="#F9F9F9"/>
<path d="M832.675 195.212C832.785 197.891 833.301 200.088 834.223 201.801C835.146 203.493 836.365 204.745 837.881 205.557C839.396 206.348 841.044 206.743 842.823 206.743C844.602 206.743 846.205 206.48 847.633 205.953C849.083 205.426 850.565 204.646 852.081 203.613L854.684 207.271C853.058 208.545 851.202 209.544 849.116 210.269C847.051 210.994 844.931 211.356 842.757 211.356C839.396 211.356 836.53 210.598 834.157 209.083C831.785 207.567 829.973 205.458 828.721 202.757C827.491 200.033 826.876 196.881 826.876 193.301C826.876 189.786 827.502 186.667 828.754 183.944C830.006 181.22 831.763 179.078 834.026 177.519C836.288 175.959 838.957 175.18 842.032 175.18C844.953 175.18 847.468 175.871 849.577 177.255C851.686 178.617 853.3 180.572 854.42 183.12C855.562 185.646 856.134 188.666 856.134 192.181C856.134 192.774 856.123 193.334 856.101 193.861C856.079 194.366 856.046 194.816 856.002 195.212H832.675ZM842.098 179.726C839.528 179.726 837.375 180.638 835.64 182.461C833.927 184.284 832.949 187.107 832.708 190.929H850.796C850.73 187.216 849.917 184.427 848.358 182.56C846.798 180.671 844.712 179.726 842.098 179.726Z" fill="#F9F9F9"/>
<path d="M496.333 357.023C496.333 419.235 466.56 450.342 407.014 450.342H357.155V265.571H403.814C431.721 265.571 454.117 272.148 471.003 285.301C487.89 298.277 496.333 322.184 496.333 357.023ZM451.273 357.023C451.273 334.093 447.718 318.452 440.608 310.097C433.498 301.565 423.367 297.299 410.213 297.299H400.881V418.613H410.213C423.544 418.613 433.676 414.081 440.608 405.015C447.718 395.772 451.273 379.775 451.273 357.023Z" fill="#F9F9F9"/>
<path d="M750.189 301.832C751.967 315.341 753.478 328.405 754.722 341.026C755.966 353.468 756.588 366.71 756.588 380.753V450.342H719.527V265.571H774.185L821.111 413.547C816.845 386.174 814.712 360.4 814.712 336.226V265.571H851.773V450.342H798.715L750.189 301.832Z" fill="#F9F9F9"/>
<path d="M1014.31 388.485C1014.31 401.283 1011.73 412.748 1006.58 422.879C1001.42 432.833 993.69 440.654 983.381 446.342C973.071 452.03 960.451 454.874 945.52 454.874C923.124 454.874 906.06 448.92 894.329 437.01C882.597 425.101 876.731 408.926 876.731 388.485V265.571H920.724V372.221C920.724 384.13 921.346 393.639 922.591 400.749C923.835 407.859 926.235 413.281 929.79 417.014C933.522 420.568 938.766 422.346 945.52 422.346C952.275 422.346 957.43 420.568 960.984 417.014C964.717 413.281 967.206 407.859 968.45 400.749C969.694 393.639 970.316 384.13 970.316 372.221V265.571H1014.31V388.485Z" fill="#F9F9F9"/>
<path d="M1126.99 450.342H1083.26V299.166H1031.27V265.571H1180.85L1176.58 299.166H1126.99V450.342Z" fill="#F9F9F9"/>
<path d="M519.262 304.587C519.262 297.715 524.833 292.145 531.705 292.145H588.585C595.456 292.145 601.027 297.715 601.027 304.587C601.027 311.459 595.456 317.03 588.585 317.03H531.705C524.833 317.03 519.262 311.459 519.262 304.587Z" fill="#56B3B4"/>
<path d="M604.582 304.587C604.582 297.715 610.153 292.145 617.024 292.145H624.134C631.006 292.145 636.577 297.715 636.577 304.587C636.577 311.459 631.006 317.03 624.134 317.03H617.024C610.153 317.03 604.582 311.459 604.582 304.587Z" fill="#F7B93E"/>
<path d="M640.132 304.587C640.132 297.715 645.702 292.145 652.574 292.145H679.237C686.108 292.145 691.679 297.715 691.679 304.587C691.679 311.459 686.108 317.03 679.237 317.03H652.574C645.702 317.03 640.132 311.459 640.132 304.587Z" fill="#BF85C0"/>
<path d="M560.145 270.815C560.145 263.943 565.715 258.372 572.587 258.372H641.909C648.781 258.372 654.352 263.943 654.352 270.815C654.352 277.687 648.781 283.257 641.909 283.257H572.587C565.715 283.257 560.145 277.687 560.145 270.815Z" fill="#EA5E5E"/>
<path d="M505.042 338.359C505.042 331.488 510.613 325.917 517.485 325.917H558.367C565.239 325.917 570.81 331.488 570.81 338.359C570.81 345.231 565.239 350.802 558.367 350.802H517.485C510.613 350.802 505.042 345.231 505.042 338.359Z" fill="#F7B93E"/>
<path d="M641.909 372.132C641.909 365.26 647.48 359.689 654.352 359.689H666.794C673.666 359.689 679.237 365.26 679.237 372.132C679.237 379.004 673.666 384.574 666.794 384.574H654.352C647.48 384.574 641.909 379.004 641.909 372.132Z" fill="#BF85C0"/>
<path d="M682.792 372.132C682.792 365.26 688.362 359.689 695.234 359.689C702.106 359.689 707.677 365.26 707.677 372.132C707.677 379.004 702.106 384.574 695.234 384.574C688.362 384.574 682.792 379.004 682.792 372.132Z" fill="#56B3B4"/>
<path d="M505.042 372.132C505.042 365.26 510.613 359.689 517.485 359.689H558.367C565.239 359.689 570.81 365.26 570.81 372.132C570.81 379.004 565.239 384.574 558.367 384.574H517.485C510.613 384.574 505.042 379.004 505.042 372.132Z" fill="#BF85C0"/>
<path d="M641.909 338.359C641.909 331.488 647.48 325.917 654.352 325.917H695.234C702.106 325.917 707.677 331.488 707.677 338.359C707.677 345.231 702.106 350.802 695.234 350.802H654.352C647.48 350.802 641.909 345.231 641.909 338.359Z" fill="#EA5E5E"/>
<path d="M522.817 405.904C522.817 399.032 528.388 393.462 535.26 393.462H558.367C565.239 393.462 570.81 399.032 570.81 405.904C570.81 412.776 565.239 418.347 558.367 418.347H535.26C528.388 418.347 522.817 412.776 522.817 405.904Z" fill="#56B3B4"/>
<path d="M574.365 405.904C574.365 399.032 579.935 393.462 586.807 393.462H679.237C686.108 393.462 691.679 399.032 691.679 405.904C691.679 412.776 686.108 418.347 679.237 418.347H586.807C579.935 418.347 574.365 412.776 574.365 405.904Z" fill="#F7B93E"/>
<path d="M570.81 439.677C570.81 432.805 576.38 427.234 583.252 427.234H627.689C634.561 427.234 640.132 432.805 640.132 439.677C640.132 446.548 634.561 452.119 627.689 452.119H583.252C576.38 452.119 570.81 446.548 570.81 439.677Z" fill="#EA5E5E"/>
</svg>
